# xmcd
#
# Track frame offsets:
#	150
#	24458
#	41886
#	56590
#	68677
#	84527
#	98708
#	112513
#	129841
#	148166
#	165435
#	186221
#	202822
#
# Disc length: 2868 seconds
#
# Revision: 5
# Processed by: cddbd v1.4PL0 Copyright (c) Steve Scherf et al.
# Submitted via: dBpowerAMP V4.0
#
DISCID=a20b320d
DTITLE=J CJ PJ - Too Country
DYEAR=1900
DGENRE=
TTITLE0=Where were you when the world stopped turning
TTITLE1=Celebrity
TTITLE2=Chasin that neon rainbow
TTITLE3=Chattahocie
TTITLE4=Daytime freinds night time lovers
TTITLE5=Dont rock the jukebox
TTITLE6=Fighten side of me
TTITLE7=Here in the real world
TTITLE8=Livin on love
TTITLE9=Mercury blues
TTITLE10=Murder on music row
TTITLE11=Too country
TTITLE12=Tall tall trees
EXTD=the album is called Too Country my name is Patrick Mc Grory
EXTT0=
EXTT1=
EXTT2=
EXTT3=
EXTT4=
EXTT5=
EXTT6=
EXTT7=
EXTT8=
EXTT9=
EXTT10=
EXTT11=
EXTT12=
PLAYORDER=
